<svg viewBox="0 0 355 62" xmlns="http://www.w3.org/2000/svg">
    <style>
        #cashier { fill: #2e2e2e } @media (prefers-color-scheme:dark) { #cashier { fill: #fff } }
    </style>
    <path id="cashier" d="M353.7 26.6001C351.2 26.6001 349.5 27.7001 348.3 30.0001V27.0001H346.2V46.0001H348.3V32.9001C348.7 31.5001 349.3 30.4001 350.2 29.7001C351.1 29.0001 352.2 28.6001 353.5 28.6001C354 28.6001 354.5 28.6001 354.9 28.7001L355 26.8001C354.7 26.7001 354.3 26.6001 353.7 26.6001Z"/>
    <path id="cashier" d="M308.1 26.6C306.8 26.6 305.6 26.9 304.6 27.5C303.5 28.1 302.6 29 301.9 30.1V19H299.8V46H301.9V33C302.4 31.6 303.1 30.5 304.1 29.7C305.1 28.9 306.3 28.5 307.6 28.5C309.2 28.5 310.3 28.9 311 29.7C311.7 30.5 312.1 31.8 312.1 33.5V46H314.2V33.5C314.2 31.2 313.7 29.5 312.7 28.3C311.6 27.2 310.1 26.6 308.1 26.6Z"/>
    <path id="cashier" d="M320.9 20.1001C320.5 20.1001 320.1 20.2001 319.8 20.5001C319.5 20.8001 319.4 21.1001 319.4 21.5001C319.4 21.9001 319.5 22.2001 319.8 22.5001C320.1 22.8001 320.4 22.9001 320.9 22.9001C321.3 22.9001 321.7 22.8001 322 22.5001C322.3 22.2001 322.4 21.9001 322.4 21.5001C322.4 21.1001 322.3 20.8001 322 20.5001C321.7 20.2001 321.3 20.1001 320.9 20.1001Z"/>
    <path id="cashier" d="M292.3 36.7999C291.4 36.2999 290 35.8 288.1 35.4C286.3 35 285 34.5 284.3 34C283.6 33.5 283.3 32.6999 283.3 31.7999C283.3 30.7999 283.7 30 284.6 29.4C285.4 28.8 286.5 28.5 287.9 28.5C289.3 28.5 290.5 28.9 291.4 29.6C292.3 30.3 292.8 31.3 292.8 32.4H294.9C294.9 30.7 294.3 29.2999 293 28.2999C291.7 27.2999 290 26.7 287.9 26.7C285.9 26.7 284.3 27.2 283.1 28.2C281.8 29.2 281.2 30.4 281.2 31.9C281.2 32.8 281.4 33.6999 281.9 34.2999C282.4 34.9999 283 35.5 284 36C284.9 36.5 286.2 36.9 287.9 37.2C289.6 37.6 290.8 38.1 291.7 38.7C292.5 39.3 293 40.2 293 41.2C293 42.2 292.5 42.9999 291.6 43.5999C290.7 44.1999 289.5 44.5999 288.1 44.5999C286.5 44.5999 285.3 44.2999 284.3 43.5999C283.3 42.8999 282.8 42 282.7 40.7H280.6C280.6 42.3 281.3 43.6999 282.7 44.7999C284.1 45.8999 285.9 46.4 288.1 46.4C290.2 46.4 291.9 45.9 293.2 45C294.5 44 295.1 42.8 295.1 41.2C295.1 40.2 294.9 39.4 294.4 38.7C293.9 37.9 293.3 37.2999 292.3 36.7999Z"/>
    <path id="cashier" d="M242.7 24.5001C244.1 22.8001 245.9 21.9001 248.2 21.9001C252.4 21.9001 254.7 24.1001 255.3 28.4001H257.5C257.2 25.8001 256.3 23.7001 254.7 22.3001C253.1 20.8001 250.9 20.1001 248.2 20.1001C246.3 20.1001 244.5 20.6001 243 21.5001C241.5 22.5001 240.4 23.8001 239.6 25.6001C238.8 27.4001 238.4 29.4001 238.4 31.6001V34.9001C238.4 37.1001 238.8 39.1001 239.6 40.9001C240.4 42.7001 241.5 44.0001 243 44.9001C244.5 45.8001 246.1 46.3001 248 46.3001C250.7 46.3001 252.9 45.6001 254.5 44.2001C256.1 42.8001 257.1 40.7001 257.4 38.0001H255.2C254.9 40.2001 254.2 41.8001 253.1 42.9001C252 44.0001 250.2 44.5001 248 44.5001C245.7 44.5001 243.9 43.6001 242.6 41.9001C241.3 40.1001 240.6 37.8001 240.6 34.8001V31.7001C240.6 28.6001 241.3 26.2001 242.7 24.5001Z"/>
    <path id="cashier" d="M276 32.7C276 30.8 275.3 29.2999 274.1 28.2999C272.9 27.1999 271.2 26.7 269.1 26.7C267 26.7 265.3 27.3 263.9 28.4C262.5 29.5 261.8 30.7999 261.8 32.2999H263.9C263.9 31.1999 264.4 30.3 265.3 29.6C266.3 28.8 267.5 28.5 268.9 28.5C270.5 28.5 271.7 28.9 272.6 29.7C273.4 30.5 273.9 31.5 273.9 32.9V35.0999H270C267.2 35.0999 265.1 35.6 263.6 36.7C262.1 37.8 261.3 39.1999 261.3 41.0999C261.3 42.6999 261.9 43.9 263 45C264.1 46 265.6 46.5 267.4 46.5C268.7 46.5 269.9 46.2 271 45.7C272.1 45.2 273.1 44.4 273.8 43.5C273.9 44.7 274 45.6 274.2 46.2H276.4V46C276 45.1 275.8 43.7 275.8 41.9V32.7H276ZM273.9 40.7C273.4 41.8 272.6 42.7 271.5 43.4C270.4 44.1 269.1 44.4 267.7 44.4C266.4 44.4 265.4 43.9999 264.6 43.2999C263.8 42.5999 263.4 41.6999 263.4 40.5999C263.4 39.2999 264 38.3 265.2 37.5C266.4 36.8 268 36.3999 270.1 36.2999H273.9V40.7Z"/>
    <path id="cashier" d="M319.8 46H321.9V27H319.8V46Z"/>
    <path id="cashier" d="M334.6 26.6001C333.1 26.6001 331.8 27.0001 330.5 27.9001C329.2 28.7001 328.2 29.9001 327.5 31.4001C326.8 32.9001 326.4 34.5001 326.4 36.3001V37.0001C326.4 38.8001 326.8 40.4001 327.5 41.8001C328.2 43.2001 329.2 44.3001 330.5 45.1001C331.8 45.9001 333.3 46.3001 334.9 46.3001C337.8 46.3001 340.1 45.2001 341.6 42.9001L340.3 41.9001C339.6 42.8001 338.8 43.5001 338 43.9001C337.1 44.3001 336.1 44.5001 335 44.5001C333.1 44.5001 331.6 43.8001 330.3 42.3001C329.1 40.9001 328.4 39.1001 328.4 36.9001V36.5001H342V35.3001C342 32.6001 341.3 30.4001 340 28.8001C338.7 27.4001 336.9 26.6001 334.6 26.6001ZM328.6 34.8001C328.8 32.8001 329.5 31.3001 330.6 30.1001C331.7 28.9001 333 28.4001 334.6 28.4001C336.2 28.4001 337.5 29.0001 338.5 30.1001C339.5 31.2001 340 32.7001 340.1 34.6001V34.8001H328.6Z"/>
    <path id="cashier" d="M155.7 29.2L155.6 26.9H150.8V45.9H155.9V33.6C156.5 32.3 157.8 31.6 159.7 31.6C160.2 31.6 160.8 31.6 161.5 31.7L161.6 26.8C161.1 26.6 160.6 26.6 160 26.6C158.1 26.6 156.7 27.5 155.7 29.2ZM178.7 33.4C178.7 31.3 178 29.6 176.6 28.4C175.2 27.2 173.4 26.6 171 26.6C169.5 26.6 168.1 26.9 166.8 27.4C165.6 27.9 164.6 28.7 163.9 29.6C163.2 30.5 162.9 31.6 162.9 32.7H168C168 32 168.2 31.4 168.7 31C169.2 30.6 169.9 30.4 170.7 30.4C171.7 30.4 172.4 30.7 172.8 31.2C173.3 31.7 173.5 32.4 173.5 33.3V34.4H171.2C168.4 34.4 166.2 35 164.7 36C163.2 37.1 162.5 38.6 162.5 40.6C162.5 42.2 163.1 43.6 164.3 44.7C165.5 45.8 167.1 46.3 168.9 46.3C170.9 46.3 172.5 45.6 173.7 44.2C173.8 44.9 174 45.4 174.2 45.9H179.3V45.6C178.8 44.7 178.6 43.3 178.5 41.5V33.4H178.7ZM173.7 40.6C173.4 41.2 172.9 41.6 172.3 41.9C171.7 42.2 171 42.4 170.2 42.4C169.4 42.4 168.8 42.2 168.4 41.8C168 41.4 167.7 40.9 167.7 40.2V39.9C167.9 38.1 169.2 37.3 171.8 37.3H173.7V40.6ZM146.8 33.4C146.8 31.3 146.1 29.6 144.7 28.4C143.3 27.2 141.5 26.6 139.1 26.6C137.6 26.6 136.2 26.9 134.9 27.4C133.7 27.9 132.7 28.7 132 29.6C131.3 30.5 131 31.6 131 32.7H136.1C136.1 32 136.3 31.4 136.8 31C137.3 30.6 138 30.4 138.8 30.4C139.8 30.4 140.5 30.7 140.9 31.2C141.4 31.7 141.6 32.4 141.6 33.3V34.4H139.3C136.5 34.4 134.3 35 132.8 36C131.3 37.1 130.6 38.6 130.6 40.6C130.6 42.2 131.2 43.6 132.4 44.7C133.6 45.8 135.2 46.3 137 46.3C139 46.3 140.6 45.6 141.8 44.2C141.9 44.9 142.1 45.4 142.3 45.9H147.4V45.6C146.9 44.7 146.7 43.3 146.6 41.5V33.4H146.8ZM141.7 40.6C141.4 41.2 140.9 41.6 140.3 41.9C139.7 42.2 139 42.4 138.2 42.4C137.4 42.4 136.8 42.2 136.4 41.8C136 41.4 135.7 40.9 135.7 40.2V39.9C135.9 38.1 137.2 37.3 139.8 37.3H141.7V40.6ZM117.6 41.8V20.4H112.3V46H128.8V41.8H117.6ZM189.5 39.8L186 27H180.7L187.1 46H191.9L198.3 27H193L189.5 39.8ZM220.1 19H225.2V46H220.1V19ZM208.5 26.6C206.8 26.6 205.2 27 203.9 27.8C202.5 28.6 201.5 29.8 200.8 31.3C200.1 32.8 199.7 34.5 199.7 36.4V36.9C199.7 39.7 200.6 42 202.3 43.7C204.1 45.4 206.3 46.3 209.1 46.3C210.7 46.3 212.1 46 213.4 45.4C214.7 44.8 215.7 44 216.5 42.9L214 40.1C212.9 41.5 211.4 42.2 209.4 42.2C208.1 42.2 207.1 41.8 206.3 41.1C205.5 40.3 205 39.4 204.8 38.1H216.9V36C216.9 33 216.2 30.7 214.7 29C213.2 27.3 211.1 26.6 208.5 26.6ZM211.9 34.7H204.8C205 33.4 205.4 32.5 206 31.8C206.6 31.1 207.4 30.8 208.5 30.8C209.6 30.8 210.4 31.1 211 31.7C211.6 32.3 211.9 33.2 211.9 34.3V34.7Z"/>
    <path fill-rule="evenodd" clip-rule="evenodd" d="M5 20H67C69.8 20 72 22.2 72 25V57C72 59.8 69.8 62 67 62H5C2.2 62 0 59.8 0 57V25C0 22.2 2.2 20 5 20Z" fill="url(#paint0_linear_0_1)"/>
    <path d="M36 53C42.6274 53 48 47.6274 48 41C48 34.3726 42.6274 29 36 29C29.3726 29 24 34.3726 24 41C24 47.6274 29.3726 53 36 53Z" fill="white"/>
    <path fill-rule="evenodd" clip-rule="evenodd" d="M23 0H85C87.8 0 90 2.2 90 5V37C90 39.8 87.8 42 85 42H23C20.2 42 18 39.8 18 37V5C18 2.2 20.2 0 23 0Z" fill="url(#paint1_linear_0_1)"/>
    <path d="M54 33C60.6274 33 66 27.6274 66 21C66 14.3726 60.6274 9 54 9C47.3726 9 42 14.3726 42 21C42 27.6274 47.3726 33 54 33Z" fill="white"/>
    <defs>
        <linearGradient id="paint0_linear_0_1" x1="36" y1="20.002" x2="36" y2="62.002" gradientUnits="userSpaceOnUse">
            <stop stop-color="#A7DA3E"/>
            <stop offset="1" stop-color="#7ED321"/>
        </linearGradient>
        <linearGradient id="paint1_linear_0_1" x1="54" y1="0.002" x2="54" y2="42.002" gradientUnits="userSpaceOnUse">
            <stop stop-color="#699B0A"/>
            <stop offset="1" stop-color="#417505"/>
        </linearGradient>
    </defs>
</svg>
